<?xml version="1.0" encoding="UTF-8"?>
<svg width="280" height="560" viewBox="0 0 280 560" fill="none" xmlns="http://www.w3.org/2000/svg">
  <!-- Phone Frame -->
  <rect width="280" height="560" rx="32" fill="#F8F9FA"/>
  <rect x="8" y="8" width="264" height="544" rx="28" fill="white"/>
  
  <!-- Header -->
  <rect x="24" y="32" width="232" height="64" rx="16" fill="#00A3E0"/>
  <text x="52" y="72" font-family="Arial" font-size="20" fill="white">Learning Light</text>
  <rect x="32" y="52" width="24" height="2" fill="white"/>
  <rect x="216" y="52" width="24" height="2" fill="white"/>
  
  <!-- Calendar -->
  <g transform="translate(24, 112)">
    <!-- Days -->
    <text x="0" y="24" font-family="Arial" font-size="14" fill="#212529">Tue</text>
    <text x="40" y="24" font-family="Arial" font-size="14" fill="#212529">Wed</text>
    <text x="80" y="24" font-family="Arial" font-size="14" fill="#212529">Thu</text>
    <text x="120" y="24" font-family="Arial" font-size="14" fill="#212529">Fri</text>
    <text x="160" y="24" font-family="Arial" font-size="14" fill="#212529">Sat</text>
    <text x="200" y="24" font-family="Arial" font-size="14" fill="#212529">Sun</text>
    <text x="240" y="24" font-family="Arial" font-size="14" fill="#212529">Mon</text>

    <!-- Dates -->
    <text x="8" y="48" font-family="Arial" font-size="16" fill="#212529">4</text>
    <text x="48" y="48" font-family="Arial" font-size="16" fill="#212529">5</text>
    <circle cx="88" cy="44" r="16" fill="#4CAF50"/>
    <text x="84" y="48" font-family="Arial" font-size="16" fill="white">6</text>
    <circle cx="128" cy="44" r="16" fill="#00A3E0"/>
    <text x="124" y="48" font-family="Arial" font-size="16" fill="white">7</text>
    <text x="168" y="48" font-family="Arial" font-size="16" fill="#212529">8</text>
    <text x="208" y="48" font-family="Arial" font-size="16" fill="#212529">9</text>
    <text x="244" y="48" font-family="Arial" font-size="16" fill="#212529">10</text>

    <!-- Selected Date -->
    <text x="80" y="80" font-family="Arial" font-size="14" fill="#6C757D">Friday, 07 June 2019</text>
  </g>

  <!-- Schedule -->
  <g transform="translate(24, 208)">
    <!-- Class 1 -->
    <rect width="232" height="80" rx="12" fill="#F8F9FA"/>
    <text x="16" y="32" font-family="Arial" font-size="16" fill="#212529">Physics Batch 12</text>
    <text x="16" y="56" font-family="Arial" font-size="14" fill="#6C757D">IIT JEE • Physics</text>
    <rect x="16" y="64" width="48" height="24" rx="12" fill="#FFE082"/>
    <text x="24" y="80" font-family="Arial" font-size="12" fill="#795548">Batch</text>
    <text x="180" y="32" font-family="Arial" font-size="14" fill="#6C757D">01:00 PM</text>

    <!-- Class 2 -->
    <g transform="translate(0, 96)">
      <rect width="232" height="80" rx="12" fill="#F8F9FA"/>
      <text x="16" y="32" font-family="Arial" font-size="16" fill="#212529">JEE Prep</text>
      <text x="16" y="56" font-family="Arial" font-size="14" fill="#6C757D">IIT JEE • Physics</text>
      <rect x="16" y="64" width="48" height="24" rx="12" fill="#FFE082"/>
      <text x="24" y="80" font-family="Arial" font-size="12" fill="#795548">Batch</text>
      <text x="180" y="32" font-family="Arial" font-size="14" fill="#6C757D">02:00 PM</text>
    </g>

    <!-- Class 3 -->
    <g transform="translate(0, 192)">
      <rect width="232" height="80" rx="12" fill="#F8F9FA"/>
      <text x="16" y="32" font-family="Arial" font-size="16" fill="#212529">Remedial Class</text>
      <text x="180" y="32" font-family="Arial" font-size="14" fill="#6C757D">05:25 PM</text>
    </g>
  </g>
</svg> 