<?xml version="1.0" encoding="UTF-8"?>
<svg width="280" height="560" viewBox="0 0 280 560" fill="none" xmlns="http://www.w3.org/2000/svg">
  <!-- Phone Frame -->
  <rect width="280" height="560" rx="32" fill="#F8F9FA"/>
  <rect x="8" y="8" width="264" height="544" rx="28" fill="white"/>
  
  <!-- Header -->
  <rect x="24" y="32" width="232" height="64" rx="16" fill="#00A3E0"/>
  <text x="52" y="72" font-family="Arial" font-size="20" fill="white">Learning Light</text>
  <path d="M40 52L44 56L40 60" stroke="white" stroke-width="2"/>
  
  <!-- Tabs -->
  <g transform="translate(24, 112)">
    <text x="0" y="24" font-family="Arial" font-size="14" fill="#6C757D">MENTS</text>
    <text x="80" y="24" font-family="Arial" font-size="14" fill="#6C757D">ANNOUNCEMENTS</text>
    <text x="200" y="24" font-family="Arial" font-size="14" fill="#00A3E0">TESTS</text>
    <text x="260" y="24" font-family="Arial" font-size="14" fill="#6C757D">VIDEOS</text>
    <rect x="200" y="28" width="40" height="2" fill="#00A3E0"/>
  </g>

  <!-- Search Bar -->
  <g transform="translate(24, 152)">
    <rect width="232" height="40" rx="8" fill="#F8F9FA"/>
    <text x="40" y="26" font-family="Arial" font-size="14" fill="#ADB5BD">Search</text>
    <path d="M16 20 A8 8 0 1 0 16 36 A8 8 0 1 0 16 20" stroke="#ADB5BD" stroke-width="2" fill="none"/>
  </g>

  <!-- Test List -->
  <g transform="translate(24, 208)">
    <text x="0" y="24" font-family="Arial" font-size="14" fill="#6C757D">ONGOING (3)</text>
    
    <!-- Test 1 -->
    <g transform="translate(0, 40)">
      <rect width="232" height="80" rx="12" fill="#F8F9FA"/>
      <text x="16" y="32" font-family="Arial" font-size="16" fill="#212529">Reshuffling test</text>
      <text x="16" y="56" font-family="Arial" font-size="14" fill="#6C757D">by Anurag</text>
      <text x="16" y="76" font-family="Arial" font-size="14" fill="#6C757D">Starts at Jul 05, 05:45 PM</text>
      <rect x="160" y="16" width="56" height="24" rx="12" fill="#E9ECEF"/>
      <text x="168" y="32" font-family="Arial" font-size="12" fill="#495057">Class Test</text>
    </g>

    <!-- Test 2 -->
    <g transform="translate(0, 136)">
      <rect width="232" height="80" rx="12" fill="#F8F9FA"/>
      <text x="16" y="32" font-family="Arial" font-size="16" fill="#212529">Newton's Second law(contd)</text>
      <text x="16" y="56" font-family="Arial" font-size="14" fill="#6C757D">by Anurag</text>
      <text x="16" y="76" font-family="Arial" font-size="14" fill="#6C757D">Ends at Jul 06, 10:45 AM</text>
      <rect x="160" y="16" width="56" height="24" rx="12" fill="#E9ECEF"/>
      <text x="168" y="32" font-family="Arial" font-size="12" fill="#00A3E0">Online Test</text>
    </g>

    <!-- Test 3 -->
    <g transform="translate(0, 232)">
      <rect width="232" height="80" rx="12" fill="#F8F9FA"/>
      <text x="16" y="32" font-family="Arial" font-size="16" fill="#212529">Conservation of momentum</text>
      <text x="16" y="56" font-family="Arial" font-size="14" fill="#6C757D">by Anurag</text>
      <text x="16" y="76" font-family="Arial" font-size="14" fill="#6C757D">Ends at Jun 10, 06:00 PM</text>
      <rect x="160" y="16" width="56" height="24" rx="12" fill="#E9ECEF"/>
      <text x="168" y="32" font-family="Arial" font-size="12" fill="#00A3E0">Online Test</text>
    </g>
  </g>
</svg> 